<svg xmlns:xlink="http://www.w3.org/1999/xlink" viewBox="0 0 146 4" fill="none" xmlns="http://www.w3.org/2000/svg" class="header__project-icon" width="146"  height="4" ><path d="M83.1703 0.125175C83.5369 0.10335 83.9047 0.0815248 84.302 0.0587515C84.3975 0.168822 84.4824 0.26466 84.585 0.382323H85.6425C85.6095 0.29882 85.5812 0.229551 85.5305 0.103349C86.1141 0.0672916 86.6882 0.000869692 87.2623 0.00276747C89.3537 0.0103586 91.4593 -0.0361364 93.5307 0.0834235C95.5632 0.201086 97.5768 0.0454681 99.5975 0.128021C101.944 0.223859 104.319 0.0445199 106.649 0.324442C107.982 0.231451 109.309 0.379476 110.653 0.329185C111.982 0.279843 113.331 0.392759 114.671 0.428817C117.403 0.501881 120.136 0.562611 122.866 0.646113C125.172 0.716331 127.474 0.809323 129.778 0.896621C131.704 0.969685 133.632 1.0399 135.556 1.13005C138.496 1.26764 141.434 1.42136 144.372 1.56938C144.892 1.59595 145.412 1.62916 145.995 1.66332C145.984 2.09696 146.118 2.4898 145.494 2.77921C143.957 2.68622 142.476 2.56951 140.987 2.51447C139.761 2.46893 138.526 2.50688 137.295 2.48695C136.824 2.47936 136.359 2.41199 135.89 2.37404C135.68 2.35696 135.468 2.32659 135.259 2.33134C133.073 2.37878 130.905 2.3209 128.751 2.09981C128.344 2.05806 127.9 2.13302 127.476 2.12258C126.786 2.1055 126.047 2.13492 125.423 2.01156C124.669 1.86259 123.945 1.87113 123.215 1.93186C122.038 2.02959 120.871 2.02769 119.696 1.95748C119.644 1.95463 119.591 1.92521 119.546 1.92996C117.607 2.12922 115.713 1.79522 113.787 1.78857C111.064 1.77909 108.33 1.74493 105.623 1.60259C104.33 1.53427 103.089 1.64814 101.824 1.63011C101.078 1.61967 100.331 1.62062 99.5857 1.60069C99.1789 1.59026 98.7828 1.46595 98.3843 1.65573C98.2641 1.71266 97.9753 1.67945 97.7642 1.67661C96.5865 1.66332 95.384 1.55894 94.2392 1.65383C92.887 1.7658 91.5937 1.59405 90.3004 1.65099C90.0564 1.30844 89.9008 1.24866 89.6096 1.39384C89.4646 1.46595 89.4092 1.55989 89.1545 1.57128C87.8801 1.62442 86.608 1.68989 85.3348 1.75062C85.2817 1.75347 85.2228 1.76485 85.1756 1.75726C83.8529 1.5504 82.5325 1.80755 81.2156 1.76296C79.2939 1.69748 77.39 1.81989 75.4778 1.86543C74.7975 1.88157 74.0996 1.96032 73.4394 1.74682C73.1128 1.6415 72.7556 1.66048 72.455 1.85974C72.3277 1.94419 71.974 1.95558 71.7193 1.96127C70.9165 1.97835 70.1113 1.97266 69.3084 1.98405C67.1698 2.01536 65.0313 2.04952 62.8927 2.08463C61.1809 2.11309 59.4679 2.14156 57.7561 2.17572C57.1702 2.18711 56.5854 2.21937 55.9995 2.23455C54.1887 2.282 52.3767 2.32944 50.5646 2.36929C49.7158 2.38827 48.8764 2.34937 48.0288 2.50119C47.5112 2.59418 46.8852 2.51827 46.3087 2.61601C49.5508 2.63783 52.794 2.65965 56.036 2.68243C56.5194 2.68622 57.0028 2.7071 57.485 2.69761C58.2135 2.68243 58.8726 2.76783 59.429 3.04206C60.1835 2.62929 61.1007 2.66345 62.0014 2.71279C62.1912 2.72323 62.1016 2.93388 62.453 2.99081C63.0247 3.08286 63.5847 3.10943 64.199 3.10184C64.2367 2.97943 64.2744 2.85512 64.3145 2.72133C64.9252 2.68243 65.4922 2.70235 66.0039 2.89877C66.8008 3.20432 67.6355 2.90067 68.4513 2.9206C68.6199 2.92439 68.7343 2.72418 69.0762 2.72702C70.0948 2.73746 71.1157 2.71279 72.1343 2.71279C72.277 2.71279 72.4951 2.75454 72.5493 2.81148C72.9548 3.24037 73.7271 3.10848 74.3507 3.18344C74.5511 3.03731 74.6749 2.85892 74.906 2.80294C75.1618 2.74031 75.5273 2.76308 75.8244 2.79819C76.1309 2.83425 76.4115 2.92914 76.7038 2.99746C76.7628 3.05154 76.7828 3.173 76.9491 3.03541C76.8559 3.03067 76.7616 3.02498 76.6685 3.02023C77.0186 2.72797 77.5609 2.6625 78.1586 2.68907C78.6844 2.71279 79.2975 2.55717 79.6924 2.90541C79.7526 2.95855 80.1487 2.90731 80.3962 2.90162C80.7499 2.96615 81.0871 3.05249 81.4431 3.09235C81.6931 3.12081 81.9748 3.0876 81.9206 2.86366C81.3854 2.76498 80.8761 2.85228 80.3656 2.90826C80.658 2.77352 80.9845 2.71754 81.3877 2.709C84.7123 2.64542 88.0357 2.63783 91.3603 2.7071C91.7316 2.71469 92.1113 2.71754 92.472 2.76024C93.3916 2.86936 94.3017 2.99841 95.1953 3.11797C95.2378 3.36753 94.9065 3.40643 94.6978 3.42161C93.8514 3.48139 92.9966 3.54687 92.1454 3.54212C91.2247 3.53643 90.3311 3.55445 89.4657 3.73C89.3679 3.74993 89.2288 3.79168 89.1687 3.7727C88.0522 3.40928 87.01 3.9027 85.9054 3.84671C84.8443 3.79263 83.7468 3.78693 82.694 3.86759C81.034 3.99474 79.3824 3.8154 77.7307 3.91029C77.2025 3.94065 76.6649 3.91978 76.1321 3.92832C74.9543 3.94729 73.7754 3.95394 72.6012 3.99854C72.0176 4.02131 71.7665 3.7727 71.3291 3.65978C71.2018 3.70058 71.0721 3.7746 70.9318 3.78124C69.5525 3.84576 68.1719 3.90554 66.7902 3.95299C66.3187 3.96912 65.8424 3.95299 65.3684 3.94634C64.6234 3.93686 63.8771 3.92073 63.132 3.91408C62.4023 3.90839 61.6843 3.86189 60.9392 3.92262C60.167 3.9843 59.3559 3.94065 58.5672 3.90744C57.024 3.84292 55.489 3.93306 53.9493 3.93496C53.1489 3.93496 52.3295 3.9824 51.5514 3.90934C50.5776 3.8173 49.6474 3.86095 48.6866 3.91978C47.8991 3.96722 47.0939 3.94065 46.2969 3.93211C45.0685 3.91978 43.8412 3.88941 42.6128 3.87802C41.8229 3.87043 41.0283 3.7281 40.2396 3.93496C40.0309 3.98905 39.7126 3.93401 39.4473 3.91978C39.1821 3.90554 38.9086 3.84482 38.6551 3.86474C37.0506 3.98905 35.4602 3.76036 33.8687 3.82014C32.5282 3.87044 31.1972 3.83343 29.8615 3.82679C29.5408 3.82489 29.1977 3.83912 28.9077 3.78409C28.6967 3.74423 28.4527 3.61329 28.4079 3.50227C28.3324 3.31534 28.3065 3.09329 28.4326 2.91965C28.7238 2.51827 28.2452 2.35791 27.7429 2.18141C28.0129 2.14346 28.2853 2.1074 28.7721 2.04383C28.3383 1.96317 28.0848 1.91573 27.7194 1.84836C27.7488 2.00872 27.7665 2.1074 27.7842 2.20608C27.0179 2.08842 26.2693 1.99733 25.4487 2.12543C25.0986 2.17952 24.7485 2.13777 24.5198 2.35791C24.4325 2.44236 24.06 2.46039 23.8089 2.47842C23.2276 2.52112 22.6394 2.53725 22.0582 2.5809C20.7165 2.68053 20.7177 2.68433 19.5694 2.24594C19.1886 2.30192 19.3902 2.48221 19.2912 2.60841C18.9222 2.81812 18.3846 2.80483 17.9484 2.75834C16.9593 2.65396 16.0586 2.75075 15.1626 2.94432C14.8184 3.01928 14.5401 2.98038 14.3444 2.80958C14.4222 2.80958 14.4965 2.80768 14.572 2.80673C14.546 2.81717 14.5189 2.83615 14.4953 2.8352C14.4576 2.83425 14.4211 2.81907 14.3845 2.80958C13.7491 3.20337 12.8708 3.15213 12.029 3.16257C11.7225 3.16636 11.4384 3.08191 11.1071 3.18818C10.3596 3.4273 9.67115 3.29351 9.04396 3.03447C9.35166 3.13505 9.65464 3.23563 10.138 3.07811C9.69944 3.06293 9.37288 3.05154 9.04632 3.04016C8.9579 3.10943 8.8848 3.23183 8.77988 3.23943C7.99353 3.29636 7.28736 3.50701 6.44089 3.48329C5.66633 3.46146 4.82693 3.52504 4.10543 3.67212C2.86873 3.92547 1.68509 3.7765 0.489654 3.66642C0.106502 3.63132 -0.133999 3.45387 0.0805661 3.21665C0.133618 3.20147 0.180775 3.17775 0.227932 3.1768C3.1281 3.13695 5.98464 2.89783 8.85061 2.68812C10.922 2.53725 13.0075 2.44426 15.0848 2.31521C17.2128 2.18236 19.3348 2.02675 21.464 1.90149C23.2218 1.79806 24.9878 1.73164 26.7491 1.6396C28.4538 1.5504 30.155 1.44033 31.8609 1.35683C33.3028 1.28567 34.7481 1.23917 36.1923 1.18034C38.9734 1.06837 41.7533 0.94881 44.5356 0.84633C45.7134 0.802681 46.8958 0.794141 48.0759 0.768521C48.5322 0.759032 48.9212 0.806476 48.9236 1.0826C49.4671 1.05983 49.1877 0.828299 49.269 0.808372C49.7641 0.643266 59.5646 0.415535 61.4379 0.479111C61.7421 0.558818 61.689 0.864359 62.2301 0.804579C62.651 0.757134 62.3787 0.568304 62.6027 0.420278C64.0445 0.257069 65.5936 0.344367 67.1333 0.319696C68.673 0.295025 70.2091 0.217216 71.9339 0.156487C71.6427 0.355753 71.4517 0.487651 71.0768 0.745748C71.6038 0.659399 71.8584 0.599618 72.1225 0.577793C72.4892 0.547429 72.8641 0.532246 73.2343 0.533195C73.5313 0.533195 73.8273 0.568305 74.3578 0.602465C73.9404 0.286486 73.4948 0.314002 73.1211 0.262762C73.1564 0.233346 73.1895 0.178312 73.2248 0.178312C75.2078 0.150795 77.1907 0.12992 79.1737 0.102402C79.7066 0.0948113 80.2406 0.0549569 80.7723 0.0597013C81.3559 0.0653946 81.9383 0.105247 82.5207 0.129918L82.4971 0.106196C82.8767 0.377578 82.9333 0.377578 83.195 0.106196L83.1738 0.128971L83.1703 0.125175ZM56.6408 3.0857C56.7705 3.07716 56.9002 3.07147 57.0275 3.05913C57.1442 3.04775 57.2574 3.02972 57.3718 3.01454C57.3588 2.98987 57.3588 2.95096 57.3293 2.94242C57.2444 2.91775 57.1148 2.8779 57.0617 2.89498C56.9073 2.94432 56.7823 3.01833 56.6456 3.08286C56.3956 3.12081 56.1398 2.92345 55.7802 3.08476H56.642L56.6408 3.0857ZM77.6093 0.295973C77.3228 0.327287 77.0375 0.376631 76.7486 0.384222C76.4751 0.390864 76.1969 0.353856 75.5791 0.314003C76.4834 0.665091 77.067 0.658449 77.6081 0.295973H77.6093ZM67.7605 0.489547C67.2158 0.404147 66.8327 0.420279 66.5415 0.703997C67.0979 0.840637 67.3974 0.689763 67.7605 0.489547ZM24.0906 1.94419C23.5424 2.08937 23.3125 2.1501 23.0591 2.21747C23.4505 2.33608 23.7039 2.27251 24.0906 1.94419ZM63.3996 0.720126C63.6307 0.728666 63.7734 0.74385 63.9078 0.733412C63.9702 0.728668 64.0186 0.673632 64.0728 0.64137C63.9962 0.621443 63.9054 0.577795 63.8465 0.588232C63.7156 0.610057 63.6012 0.658449 63.3996 0.720126ZM78.1469 3.04775C78.1634 3.07906 78.1799 3.11038 78.1964 3.14169C78.3944 3.136 78.596 3.14169 78.7858 3.11891C78.8471 3.11132 78.9049 3.02877 78.9049 2.98133C78.9049 2.96045 78.741 2.91301 78.6774 2.92344C78.4935 2.95286 78.3225 3.00505 78.1469 3.04775ZM51.5726 2.94812C51.6221 2.97943 51.6681 3.01264 51.7259 3.03826C51.7353 3.04205 51.8273 3.01549 51.8308 2.99936C51.8402 2.9652 51.8167 2.92819 51.8061 2.89308C51.7282 2.91111 51.6504 2.93009 51.5714 2.94812H51.5726ZM87.4038 0.326339C87.4144 0.363345 87.4262 0.400353 87.4368 0.43736C87.6643 0.418382 87.8919 0.399403 88.1206 0.379476C88.11 0.343418 88.0994 0.307361 88.0876 0.270355C87.86 0.288383 87.6313 0.30736 87.4038 0.325389V0.326339ZM58.2477 0.758081C58.2347 0.726768 58.2218 0.694506 58.2088 0.663193C58.0155 0.671733 57.8209 0.678376 57.6276 0.691661C57.5958 0.693559 57.5415 0.739105 57.551 0.747645C57.5958 0.784652 57.67 0.848226 57.7137 0.84443C57.8952 0.82735 58.0709 0.789396 58.2477 0.759031V0.758081ZM43.7422 3.11038C43.7634 3.07052 43.8235 3.01739 43.7964 2.99366C43.7528 2.95666 43.649 2.93863 43.5712 2.91206C43.5453 2.95666 43.4769 3.01264 43.5064 3.043C43.5394 3.07716 43.6597 3.08855 43.7434 3.11038H43.7422ZM76.1745 1.00669C76.1792 1.0437 76.1828 1.0807 76.1875 1.11771C76.3584 1.11297 76.5305 1.11012 76.7003 1.09968C76.7062 1.09968 76.6944 1.02282 76.6909 0.98202L76.1745 1.00764V1.00669ZM85.5411 2.96804L85.791 2.91585C85.7616 2.89688 85.7321 2.86367 85.7014 2.86272C85.613 2.86082 85.5234 2.8722 85.435 2.87885C85.4704 2.90921 85.5057 2.93863 85.5423 2.96899L85.5411 2.96804ZM33.133 1.6823C33.0552 1.65858 32.9797 1.63011 32.896 1.61493C32.8772 1.61113 32.7911 1.66142 32.7994 1.66996C32.8395 1.70982 32.8996 1.74398 32.9538 1.77909C33.0139 1.74682 33.0741 1.71456 33.1342 1.6823H33.133ZM89.599 0.311156C89.6721 0.292178 89.7239 0.277945 89.7758 0.263712C89.7404 0.256121 89.6945 0.238092 89.6721 0.243786C89.6426 0.252326 89.6308 0.278894 89.599 0.311156ZM78.8177 0.50378C78.9014 0.482905 78.9992 0.470569 79.0605 0.438307C79.0817 0.42692 79.0145 0.338674 78.9733 0.334878C78.8931 0.328236 78.8035 0.357653 78.7175 0.371886C78.7505 0.415535 78.7847 0.459182 78.8188 0.50378H78.8177ZM80.0579 0.339624C80.0131 0.376631 79.9624 0.411738 79.9306 0.450643C79.9235 0.459183 80.0025 0.499984 80.0131 0.497137C80.0815 0.477211 80.1428 0.450642 80.2064 0.425971C80.1569 0.397504 80.1086 0.369038 80.0579 0.340571V0.339624ZM69.1493 0.492394L69.0219 0.518963C69.0785 0.538889 69.1339 0.561664 69.1941 0.576846C69.2023 0.578744 69.2436 0.545533 69.2683 0.529402C69.2283 0.517066 69.1882 0.504729 69.1481 0.492394H69.1493ZM89.349 0.92129C89.4221 0.905159 89.4952 0.88808 89.5671 0.871949C89.5247 0.859613 89.4787 0.833995 89.4422 0.83779C89.3679 0.845382 89.2983 0.868154 89.2264 0.884285C89.2665 0.896621 89.3078 0.908955 89.3479 0.92129H89.349ZM73.4677 3.56964L73.4583 3.60664L73.5585 3.59336L73.4677 3.56964ZM93.9351 3.22519C93.8962 3.2176 93.8561 3.21096 93.8172 3.20337C93.8101 3.23088 93.8018 3.25935 93.7948 3.28687C93.8372 3.28307 93.8844 3.28402 93.9197 3.27358C93.9374 3.26884 93.9303 3.24132 93.9351 3.22519ZM85.6696 3.26504C85.7168 3.27264 85.7639 3.28592 85.8111 3.28592C85.8264 3.28592 85.8417 3.25176 85.857 3.23278C85.8099 3.22519 85.7627 3.21286 85.7156 3.21286C85.6991 3.21286 85.6849 3.24607 85.6696 3.26504ZM65.9485 3.2565C65.8801 3.25081 65.8129 3.24417 65.7445 3.23848C65.774 3.25461 65.8011 3.28023 65.8353 3.28307C65.8695 3.28592 65.9108 3.26694 65.9485 3.2565ZM61.3789 3.06578C61.3424 3.05913 61.3059 3.05154 61.2705 3.0449C61.2929 3.06767 61.3141 3.0895 61.3365 3.11227L61.3789 3.06578ZM53.8869 3.07811C53.8503 3.06388 53.8161 3.04016 53.7772 3.03826C53.7395 3.03636 53.6971 3.05629 53.657 3.06768C53.6923 3.08191 53.7265 3.10563 53.7643 3.10658C53.8032 3.10848 53.8456 3.08855 53.8869 3.07811ZM46.1248 3.05724C46.0871 3.05154 46.0493 3.04016 46.0128 3.04111C45.9987 3.04111 45.988 3.06957 45.9763 3.08476C46.0128 3.09045 46.0517 3.10089 46.0871 3.09994C46.1024 3.09994 46.113 3.07242 46.1248 3.05724ZM89.6225 2.94717L89.7534 2.91775L89.5058 2.90447C89.5447 2.9187 89.5836 2.93293 89.6225 2.94717ZM88.4448 2.90921L88.3281 2.8741L88.3139 2.92914L88.4448 2.91016V2.90921ZM48.2575 3.01264C48.2374 2.99082 48.2174 2.96899 48.1974 2.94717L48.1726 3.06768C48.2009 3.04965 48.2304 3.03067 48.2587 3.01264H48.2575ZM42.1777 2.8722C42.1412 2.88359 42.1035 2.89403 42.0669 2.90541C42.0893 2.92155 42.1271 2.95381 42.1329 2.95191C42.1907 2.93673 42.2438 2.91585 42.298 2.89688C42.2579 2.88834 42.219 2.88074 42.1789 2.8722H42.1777ZM12.4605 2.81622C12.431 2.79629 12.4027 2.77732 12.3733 2.75739C12.3391 2.77447 12.3049 2.79155 12.2707 2.80863C12.319 2.8333 12.3662 2.85892 12.4145 2.88359C12.4298 2.86082 12.4452 2.83899 12.4605 2.81622ZM21.3814 2.38732C21.3449 2.37973 21.3072 2.36645 21.2706 2.36645C21.2565 2.36645 21.2423 2.39681 21.2282 2.41294C21.2647 2.42053 21.3025 2.43382 21.339 2.43382C21.3532 2.43382 21.3673 2.40345 21.3814 2.38732ZM34.4864 1.57413L34.4947 1.53807L34.3945 1.55135L34.4852 1.57413H34.4864ZM78.2023 1.48114L78.1657 1.43179L78.1339 1.48208H78.2023V1.48114ZM58.935 1.33501C58.8961 1.34734 58.8572 1.35873 58.8171 1.37106L58.8843 1.4261L59.0576 1.36253C59.0164 1.35304 58.9751 1.3445 58.9339 1.33501H58.935ZM56.2883 1.42515L56.2105 1.36822C56.1822 1.3853 56.1315 1.40333 56.1327 1.42041C56.1327 1.44033 56.1787 1.46026 56.2046 1.48019C56.2329 1.46216 56.2612 1.44318 56.2883 1.42515ZM64.2944 1.2515L64.232 1.30844L64.3333 1.31603L64.2933 1.2515H64.2944ZM72.2192 1.11297C72.2581 1.09494 72.2958 1.07596 72.3347 1.05793C72.251 1.03421 72.1697 1.00479 72.0813 0.988663C72.0577 0.984868 72.0082 1.02282 71.9704 1.0418C72.0541 1.06552 72.1367 1.08925 72.2204 1.11297H72.2192ZM69.5112 1.09683C69.5525 1.08735 69.5925 1.07786 69.6326 1.06837C69.5619 1.06173 69.4912 1.05508 69.4204 1.04749C69.4511 1.06362 69.4806 1.07976 69.5112 1.09589V1.09683ZM47.1811 1.05983L47.2931 1.08165C47.2719 1.05793 47.2495 1.03326 47.2283 1.00954C47.2129 1.02662 47.1976 1.04275 47.1823 1.05983H47.1811ZM54.8842 0.881438L54.7557 0.843484L54.7392 0.899468L54.8842 0.881438ZM53.7006 0.937423L53.6452 0.876692L53.598 0.938372L53.7006 0.936473V0.937423ZM51.5903 0.861513L51.5773 0.907057L51.6834 0.891875L51.5903 0.86246V0.861513ZM64.99 0.666039L64.9865 0.729616L65.1232 0.700201L64.99 0.666989V0.666039ZM59.923 0.796986C60.0008 0.774213 60.0786 0.751441 60.1564 0.727719C60.0845 0.702099 60.0149 0.656552 59.9418 0.655603C59.864 0.655603 59.785 0.695457 59.7061 0.719179C59.778 0.744799 59.8499 0.771366 59.9218 0.796986H59.923ZM92.7821 0.349111L92.9035 0.388965L92.9271 0.331082L92.7832 0.349111H92.7821Z" fill="#171614"></path></svg>